<svg width="16" height="16" viewBox="0 0 16 16" fill="none" xmlns="http://www.w3.org/2000/svg">
<g clip-path="url(#clip0_566_6474)">
<path d="M7.33755 1.71866L7.33288 12.0107C7.33288 12.1875 7.40312 12.357 7.52814 12.4821C7.65317 12.6071 7.82274 12.6773 7.99955 12.6773C8.17636 12.6773 8.34593 12.6071 8.47095 12.4821C8.59598 12.357 8.66621 12.1875 8.66621 12.0107L8.67088 1.73L10.6122 3.672C10.7372 3.79698 10.9068 3.86719 11.0835 3.86719C11.2603 3.86719 11.4299 3.79698 11.5549 3.672C11.6799 3.54698 11.7501 3.37744 11.7501 3.20066C11.7501 3.02389 11.6799 2.85435 11.5549 2.72933L9.41421 0.585996C9.22848 0.400143 9.00795 0.252709 8.76521 0.152119C8.52248 0.0515299 8.2623 -0.000244141 7.99955 -0.000244141C7.7368 -0.000244141 7.47662 0.0515299 7.23388 0.152119C6.99115 0.252709 6.77062 0.400143 6.58488 0.585996L4.44421 2.72733C4.31923 2.85235 4.24902 3.02189 4.24902 3.19866C4.24902 3.37544 4.31923 3.54498 4.44421 3.67C4.56923 3.79498 4.73877 3.86519 4.91555 3.86519C5.09232 3.86519 5.26186 3.79498 5.38688 3.67L7.33755 1.71866Z" fill="#191919"/>
<path d="M14.6667 11.3329V13.9996C14.6667 14.1764 14.5964 14.346 14.4714 14.471C14.3464 14.596 14.1768 14.6663 14 14.6663H2C1.82319 14.6663 1.65362 14.596 1.5286 14.471C1.40357 14.346 1.33333 14.1764 1.33333 13.9996V11.3329C1.33333 11.1561 1.2631 10.9865 1.13807 10.8615C1.01305 10.7365 0.843478 10.6663 0.666667 10.6663C0.489856 10.6663 0.320286 10.7365 0.195262 10.8615C0.0702379 10.9865 0 11.1561 0 11.3329L0 13.9996C0 14.53 0.210714 15.0387 0.585786 15.4138C0.960859 15.7889 1.46957 15.9996 2 15.9996H14C14.5304 15.9996 15.0391 15.7889 15.4142 15.4138C15.7893 15.0387 16 14.53 16 13.9996V11.3329C16 11.1561 15.9298 10.9865 15.8047 10.8615C15.6797 10.7365 15.5101 10.6663 15.3333 10.6663C15.1565 10.6663 14.987 10.7365 14.8619 10.8615C14.7369 10.9865 14.6667 11.1561 14.6667 11.3329Z" fill="#191919"/>
</g>
<defs>
<clipPath id="clip0_566_6474">
<rect width="16" height="16" fill="white"/>
</clipPath>
</defs>
</svg>
