<svg width="14" height="14" viewBox="0 0 14 14" fill="none" xmlns="http://www.w3.org/2000/svg">
<g clip-path="url(#clip0_504_5749)">
<path d="M9.91699 8.16668C9.91699 8.32139 9.85553 8.46976 9.74614 8.57916C9.63674 8.68855 9.48837 8.75001 9.33366 8.75001H4.66699C4.51228 8.75001 4.36391 8.68855 4.25451 8.57916C4.14512 8.46976 4.08366 8.32139 4.08366 8.16668C4.08366 8.01197 4.14512 7.8636 4.25451 7.7542C4.36391 7.6448 4.51228 7.58335 4.66699 7.58335H9.33366C9.48837 7.58335 9.63674 7.6448 9.74614 7.7542C9.85553 7.8636 9.91699 8.01197 9.91699 8.16668ZM7.58366 9.91668H4.66699C4.51228 9.91668 4.36391 9.97814 4.25451 10.0875C4.14512 10.1969 4.08366 10.3453 4.08366 10.5C4.08366 10.6547 4.14512 10.8031 4.25451 10.9125C4.36391 11.0219 4.51228 11.0833 4.66699 11.0833H7.58366C7.73837 11.0833 7.88674 11.0219 7.99614 10.9125C8.10553 10.8031 8.16699 10.6547 8.16699 10.5C8.16699 10.3453 8.10553 10.1969 7.99614 10.0875C7.88674 9.97814 7.73837 9.91668 7.58366 9.91668ZM12.8337 6.11626V11.0833C12.8327 11.8566 12.5251 12.5979 11.9784 13.1447C11.4316 13.6915 10.6903 13.9991 9.91699 14H4.08366C3.3104 13.9991 2.56907 13.6915 2.02229 13.1447C1.47551 12.5979 1.16792 11.8566 1.16699 11.0833V2.91668C1.16792 2.14342 1.47551 1.40209 2.02229 0.855308C2.56907 0.308528 3.3104 0.000939695 4.08366 1.34451e-05H6.71741C7.25385 -0.00136726 7.78525 0.103606 8.28087 0.308865C8.7765 0.514123 9.22651 0.815594 9.60491 1.19585L11.6372 3.22935C12.0177 3.60749 12.3194 4.05736 12.5247 4.55292C12.7301 5.04847 12.8351 5.57984 12.8337 6.11626ZM8.78008 2.02068C8.59649 1.84286 8.39037 1.68989 8.16699 1.56568V4.08335C8.16699 4.23806 8.22845 4.38643 8.33785 4.49583C8.44724 4.60522 8.59562 4.66668 8.75033 4.66668H11.268C11.1437 4.44337 10.9905 4.23743 10.8124 4.05418L8.78008 2.02068ZM11.667 6.11626C11.667 6.02001 11.6483 5.92785 11.6396 5.83335H8.75033C8.2862 5.83335 7.84108 5.64897 7.51289 5.32078C7.1847 4.99259 7.00033 4.54748 7.00033 4.08335V1.1941C6.90583 1.18535 6.81308 1.16668 6.71741 1.16668H4.08366C3.61953 1.16668 3.17441 1.35105 2.84622 1.67924C2.51803 2.00743 2.33366 2.45255 2.33366 2.91668V11.0833C2.33366 11.5475 2.51803 11.9926 2.84622 12.3208C3.17441 12.649 3.61953 12.8333 4.08366 12.8333H9.91699C10.3811 12.8333 10.8262 12.649 11.1544 12.3208C11.4826 11.9926 11.667 11.5475 11.667 11.0833V6.11626Z" fill="#374957"/>
</g>
<defs>
<clipPath id="clip0_504_5749">
<rect width="14" height="14" fill="white"/>
</clipPath>
</defs>
</svg>
