<svg width="148" height="40" viewBox="0 0 148 40" fill="none" xmlns="http://www.w3.org/2000/svg">
<path d="M70.5335 7.67957C71.2578 9.2658 71.9821 10.7579 72.7064 12.1703C73.4307 13.5827 74.1551 15.0241 74.9228 16.5161C75.6906 18.0082 76.5163 19.5365 77.4 21.1807C78.2836 22.8249 79.2759 24.6501 80.3769 26.671L81.1012 25.36C81.3764 24.8312 81.6879 24.2518 82.0283 23.6216L83.151 21.5791L84.3678 19.341L90.6331 7.70854H91.0822C91.3333 9.91044 91.5747 12.1292 91.8065 14.3649C92.0383 16.6006 92.2797 18.7736 92.5308 20.8837C92.7674 22.9842 93.0088 24.9737 93.2551 26.852C93.5014 28.7304 93.7187 30.4205 93.907 31.9222C93.6357 31.8552 93.3596 31.8092 93.0813 31.7846C92.8278 31.7846 92.567 31.7846 92.2918 31.7846C91.97 31.7834 91.6483 31.8003 91.3284 31.8353C91.1069 31.8494 90.888 31.8908 90.6766 31.9584C90.5607 30.5581 90.4351 29.0539 90.2999 27.446C90.1551 25.8452 90.0174 24.2518 89.8653 22.6655C89.7132 21.0793 89.5684 19.5655 89.4163 18.1096C89.2642 16.6538 89.1265 15.35 88.9889 14.1984H88.9165C88.0039 15.9005 87.1926 17.3998 86.4973 18.7108C85.802 20.0218 85.1718 21.1952 84.6213 22.2527C84.0709 23.3102 83.5783 24.2518 83.1727 25.092C82.7671 25.9322 82.347 26.7144 81.9848 27.446C81.6227 28.1775 81.2605 28.8946 80.9346 29.6189C80.6087 30.3432 80.261 31.0675 79.9206 31.7918H79.6091C78.2329 28.8946 76.7988 25.9974 75.3067 23.1001C73.8146 20.2029 72.2863 17.2163 70.7218 14.1404H70.6566C70.0579 19.0319 69.633 22.8949 69.3819 25.7294C69.1308 28.5638 69.0052 30.6016 69.0052 31.8425C68.7964 31.7813 68.5833 31.7353 68.3678 31.7049C67.9903 31.6566 67.6082 31.6566 67.2307 31.7049C67.015 31.7345 66.8019 31.7806 66.5933 31.8425C67.2886 27.3422 67.9356 23.0325 68.5344 18.9136C69.1332 14.7947 69.5991 11.05 69.9323 7.67957H70.5335Z" fill="white"/>
<path d="M98.6948 8.12866L99.5712 8.24455C99.8402 8.27969 100.111 8.29663 100.382 8.29525C100.663 8.29619 100.944 8.27926 101.223 8.24455C101.512 8.24455 101.795 8.17212 102.07 8.12866C101.998 9.82355 101.94 11.3301 101.882 12.6339C101.824 13.9376 101.795 15.2486 101.795 16.5596V18.24C105.373 18.3125 107.77 18.3487 108.987 18.3487C110.204 18.3487 112.602 18.3125 116.18 18.24V17.1753C116.18 16.3278 116.18 15.5963 116.18 15.0024C116.18 14.4084 116.18 13.7565 116.129 13.1264C116.078 12.4962 116.078 11.8009 116.042 11.0259C116.006 10.2509 115.97 9.30204 115.926 8.12866L116.803 8.24455C117.069 8.27992 117.338 8.29686 117.607 8.29525C117.89 8.29598 118.173 8.27905 118.454 8.24455C118.736 8.24455 119.019 8.17212 119.294 8.12866C119.227 9.6642 119.164 11.1659 119.106 12.6339C119.048 14.1018 119.019 15.42 119.019 16.5886V23.4044C119.019 24.5777 119.019 25.896 119.106 27.3808C119.193 28.8656 119.229 30.3577 119.294 31.8715C119.011 31.8027 118.723 31.7567 118.432 31.7339C118.157 31.7339 117.882 31.7339 117.607 31.7339C117.331 31.7339 117.063 31.7339 116.803 31.7339C116.508 31.7588 116.215 31.8048 115.926 31.8715C115.989 30.3601 116.052 28.8681 116.114 27.3953C116.172 25.9467 116.201 24.5995 116.201 23.4044V19.8625H115.477H113.478H111.037H109.009H106.583L101.817 19.9132V23.4551C101.817 24.6284 101.817 25.9467 101.904 27.4315C101.99 28.9163 102.019 30.4084 102.092 31.9222C101.809 31.8534 101.52 31.8074 101.23 31.7846C100.955 31.7846 100.679 31.7846 100.404 31.7846C100.129 31.7846 99.861 31.7846 99.593 31.7846C99.298 31.8105 99.0052 31.8565 98.7166 31.9222C98.789 30.4084 98.8469 28.9163 98.9049 27.446C98.9628 25.9757 98.9918 24.6502 98.9918 23.4551V16.5886C98.9918 15.4007 98.9918 14.068 98.9049 12.5977C98.818 11.1273 98.7817 9.64247 98.6948 8.12866Z" fill="white"/>
<path d="M137.844 7.67952C139.393 7.67076 140.939 7.82124 142.457 8.12859C143.904 8.43435 145.296 8.95693 146.586 9.67862C146.374 10.0996 146.207 10.5414 146.086 10.9969C145.959 11.4313 145.862 11.8743 145.797 12.3223H145.384C144.439 11.2348 143.263 10.3713 141.943 9.79451C140.636 9.23613 139.229 8.95024 137.807 8.95431C136.376 8.92722 134.953 9.17304 133.614 9.67862C132.407 10.1533 131.325 10.8964 130.448 11.8515C129.538 12.8546 128.852 14.0397 128.435 15.3282C127.937 16.8373 127.692 18.4183 127.711 20.0073C127.693 21.5559 127.938 23.0964 128.435 24.5632C128.863 25.8348 129.554 27.0021 130.463 27.9892C131.357 28.9466 132.457 29.6894 133.679 30.1621C135.056 30.6687 136.515 30.9144 137.981 30.8864C139.004 30.8821 140.024 30.79 141.031 30.6112C141.894 30.4925 142.727 30.2124 143.486 29.7855C143.486 29.6696 143.486 29.2567 143.522 28.5469C143.558 27.8371 143.522 26.8955 143.522 25.7221V24.7805C143.522 24.4835 143.522 24.2083 143.522 23.9548L143.385 20.8909C143.928 21.0038 144.481 21.0621 145.036 21.0648C145.311 21.0648 145.572 21.0648 145.811 21.0648C146.057 21.0464 146.3 21.0003 146.535 20.9271C146.492 21.8905 146.456 22.8973 146.434 23.9403C146.412 24.9833 146.434 26.2291 146.434 27.6705V30.6981C145.746 30.9299 144.985 31.1472 144.196 31.3572C143.406 31.5673 142.595 31.7411 141.806 31.886C141.016 32.0308 140.256 32.1539 139.539 32.2336C138.904 32.3089 138.265 32.35 137.626 32.3568C135.723 32.3784 133.828 32.0972 132.013 31.5238C130.468 31.038 129.047 30.2225 127.848 29.1336C126.699 28.0573 125.812 26.7316 125.255 25.2585C124.628 23.5826 124.324 21.8035 124.357 20.0145C124.325 18.2423 124.648 16.4816 125.306 14.8357C125.902 13.3562 126.825 12.0313 128.007 10.9606C129.242 9.87102 130.687 9.04531 132.252 8.53421C134.057 7.94858 135.946 7.65993 137.844 7.67952Z" fill="white"/>
<path d="M13.2336 9.83792C11.785 6.65096 10.1046 5.28926 7.14939 4.4056C6.72442 4.27924 6.29121 4.18243 5.85287 4.11588C4.31369 3.80321 2.71406 4.01752 1.31145 4.7243L1 5.0937C1 5.0937 5.96876 5.39066 7.83024 11.3807C8.67044 14.0606 9.40199 17.0303 9.93074 19.4785C10.7782 23.187 11.6184 26.9968 13.0308 30.1114V30.1621C14.4794 33.349 16.1526 34.7107 19.115 35.5871C19.5405 35.7131 19.9736 35.8123 20.4115 35.8841C21.9467 36.2007 23.5438 35.9915 24.9457 35.2902L25.2644 34.9063C25.2644 34.9063 20.2956 34.6021 18.4269 28.6193C17.5867 25.9321 16.8624 22.9697 16.3336 20.5142C15.4862 16.8058 14.6605 13.0032 13.2553 9.88863L13.2336 9.83792Z" fill="white"/>
<path d="M43.3506 9.83798C41.902 6.65102 40.2288 5.28931 37.2664 4.40566C36.8416 4.27854 36.4084 4.18172 35.9699 4.11593C34.4284 3.80044 32.8256 4.01484 31.4212 4.72435L31.1025 5.10824C31.1025 5.10824 36.0713 5.4052 37.94 11.3952C38.7802 14.0752 39.5045 17.0449 40.0333 19.493C40.8807 23.2015 41.7209 27.0114 43.1333 30.1259V30.1766C44.5819 33.3636 46.2623 34.7253 49.2175 35.6017C49.6532 35.719 50.0959 35.8086 50.543 35.8697C52.0806 36.1851 53.6796 35.976 55.0844 35.2757L55.3959 34.8918C55.3959 34.8918 50.4271 34.5876 48.5584 28.6048C47.7182 25.9177 46.9939 22.9552 46.4651 20.4998C45.6177 16.7914 44.7775 12.9887 43.3651 9.87419L43.3506 9.83798Z" fill="white"/>
<path d="M28.2922 9.83796C26.8436 6.651 25.1632 5.2893 22.208 4.40564C21.7832 4.27852 21.3499 4.1817 20.9115 4.11592C19.3722 3.80496 17.7732 4.01919 16.37 4.72434L16.0586 5.10822C16.0586 5.10822 21.0274 5.40519 22.8888 11.3952C23.7363 14.0752 24.4606 17.0448 24.9893 19.493C25.8368 23.2015 26.677 27.0113 28.0894 30.1259V30.1766C29.538 33.3635 31.2112 34.7252 34.1736 35.6017C34.5991 35.7276 35.0321 35.8268 35.4701 35.8986C37.0053 36.2152 38.6024 36.006 40.0043 35.3047L40.323 34.9208C40.323 34.9208 35.3542 34.6166 33.4855 28.6338C32.6453 25.9466 31.921 22.9842 31.3922 20.5288C30.5448 16.8203 29.7046 13.0177 28.2922 9.90315V9.83796Z" fill="white"/>
</svg>
