<svg width="80" height="80" viewBox="0 0 80 80" fill="none" xmlns="http://www.w3.org/2000/svg">
<g clip-path="url(#clip0_118_18623)">
<path fill-rule="evenodd" clip-rule="evenodd" d="M11.8026 79.7385L32.7786 68.4017L55.1057 56.338C55.4222 56.1718 55.691 55.9274 55.8863 55.6281C56.0817 55.3287 56.1972 54.9842 56.2217 54.6276C56.2574 54.2712 56.2013 53.9116 56.0589 53.583C55.9165 53.2543 55.6925 52.9675 55.408 52.7498L39.7016 40.4211L23.9952 28.0924C23.7184 27.8684 23.3884 27.7198 23.0372 27.6612C22.686 27.6025 22.3257 27.6356 21.9911 27.7575C21.6521 27.8706 21.3478 28.0691 21.1075 28.3337C20.8673 28.5983 20.6991 28.9203 20.6191 29.2687L14.4883 54.0469L8.72881 77.3246C8.62369 77.7275 8.63957 78.1524 8.77448 78.5463C8.90938 78.9402 9.15733 79.2856 9.48735 79.5394C9.80959 79.7993 10.2021 79.9571 10.6145 79.9926C11.027 80.028 11.4407 79.9396 11.8026 79.7385Z" fill="#F9B317"/>
<path fill-rule="evenodd" clip-rule="evenodd" d="M23.4063 37.7082C26.8042 38.1194 29.867 41.3535 33.2648 41.7627C35.4038 42.0213 37.6756 41.1587 39.9129 40.5864L39.702 40.4211L23.9956 28.0924C23.7188 27.8684 23.3888 27.7198 23.0376 27.6612C22.6864 27.6025 22.326 27.6356 21.9914 27.7575C21.6524 27.8706 21.3481 28.0691 21.1079 28.3337C20.8676 28.5983 20.6995 28.9203 20.6195 29.2687L18.3477 38.45C20.0617 37.9689 21.7727 37.5112 23.4063 37.7082Z" fill="#43BB4E"/>
<path fill-rule="evenodd" clip-rule="evenodd" d="M30.5722 51.8199C27.1743 51.4109 24.1115 48.1745 20.7135 47.7654C19.15 47.5767 17.5154 47.9858 15.875 48.4436L14.4887 54.0474L13.2012 59.2484C15.0711 58.725 16.9457 58.1612 18.728 58.3773C22.1257 58.7863 25.1886 62.0206 28.5863 62.4319C31.984 62.8431 35.7171 60.4247 39.115 60.8339C40.641 61.0183 42.0988 61.7706 43.5499 62.5824L55.1061 56.3386C55.4227 56.1724 55.6914 55.928 55.8867 55.6286C56.0821 55.3292 56.1976 54.9848 56.2222 54.6282C56.2576 54.2522 56.1934 53.8735 56.0359 53.5303C54.3158 54.0135 52.5984 54.4733 50.9592 54.2762C47.5615 53.8672 44.4986 50.6309 41.101 50.2217C37.7035 49.8126 33.9702 52.2289 30.5723 51.8197" fill="#43BB4E"/>
<path fill-rule="evenodd" clip-rule="evenodd" d="M22.9156 71.5215C20.1542 73.7851 17.1739 76.1327 13.9746 78.5644L25.3496 72.418L32.7791 68.4039L43.5507 62.5818L55.1069 56.3379C55.4234 56.1718 55.6922 55.9274 55.8876 55.628C56.0831 55.3286 56.1986 54.9842 56.2232 54.6275C56.2586 54.2516 56.1943 53.873 56.0368 53.5298C55.8918 53.2242 55.677 52.957 55.4097 52.7498L46.9093 46.0779C45.9818 47.8091 44.9225 49.4664 43.7409 51.0353C41.3784 54.2208 38.2241 57.7128 34.2781 61.5115C31.0283 64.6419 27.2411 67.9786 22.9164 71.5215" fill="#DB8E19"/>
<path fill-rule="evenodd" clip-rule="evenodd" d="M25.3491 72.418C22.1795 71.7441 19.2737 68.8467 16.0702 68.459C14.3435 68.2513 12.5306 68.7727 10.7185 69.2836L8.72881 77.3247C8.62369 77.7276 8.63957 78.1525 8.77448 78.5464C8.90938 78.9402 9.15733 79.2857 9.48735 79.5395C9.80959 79.7994 10.2021 79.9572 10.6145 79.9927C11.027 80.0281 11.4407 79.9397 11.8026 79.7387L25.3491 72.418Z" fill="#43BB4E"/>
<path fill-rule="evenodd" clip-rule="evenodd" d="M34.2754 61.5115C35.9158 61.0537 37.5499 60.6447 39.114 60.8333C40.64 61.0176 42.0978 61.77 43.549 62.5818L55.1051 56.3379C55.146 56.3147 55.1861 56.2914 55.2248 56.268L55.2536 56.251C55.2824 56.2319 55.3104 56.2128 55.338 56.1938C55.3655 56.1726 55.3925 56.1536 55.4189 56.1323L55.4709 56.092L55.4959 56.0687L55.5211 56.0475L55.5455 56.0264L55.5696 56.003L55.5931 55.9797L55.6162 55.9585L55.6392 55.9352L55.662 55.9097L55.6841 55.8864L55.7057 55.8609L55.7268 55.8376L55.7476 55.8121L55.7682 55.7867L55.788 55.7613C55.8079 55.7358 55.8273 55.7104 55.8457 55.6829L55.8642 55.6554L55.882 55.6299V55.6279L55.8996 55.6025L55.9168 55.575L55.9327 55.5452L55.9486 55.5177L55.9804 55.4605L55.9951 55.4308L56.0096 55.4033L56.0236 55.3736L56.0371 55.3438L56.05 55.312L56.0627 55.2823L56.0749 55.2526L56.0864 55.2208L56.0978 55.189L56.1086 55.1593L56.119 55.1275L56.1287 55.0957L56.1381 55.0639L56.147 55.0301L56.1554 54.9983L56.1635 54.9665L56.171 54.9326L56.1781 54.8988L56.1845 54.867L56.1907 54.8331L56.1962 54.7992L56.2013 54.7654L56.2059 54.7315L56.2102 54.6954L56.214 54.6616L56.217 54.6277L56.2188 54.6087L56.2201 54.5896L56.2212 54.5726L56.2225 54.5535V54.5344L56.2232 54.5174L56.224 54.4983V54.4813V54.4623V54.3902V54.3712V54.3542V54.3351L56.2232 54.3181L56.2225 54.3011L56.2213 54.282L56.2206 54.265L56.2193 54.248V54.2459L56.2178 54.2289L56.2164 54.2119L56.2147 54.1949L56.2128 54.1758L56.2107 54.1588L56.2088 54.1418L56.2067 54.1248L56.2043 54.1057L56.2016 54.0887L56.1991 54.0717L56.1961 54.0547L56.193 54.0377L56.1899 54.0207L56.1865 54.0037L56.1832 53.9866L56.18 53.9696L56.1764 53.9526L56.1727 53.9356L56.1689 53.9186L56.1646 53.9016L56.1606 53.8846L56.1566 53.8676L56.1522 53.8506L56.1477 53.8336L56.1433 53.8188V53.8167L56.1384 53.8019L56.1334 53.7849L56.1285 53.7679L56.1233 53.7531V53.7511L56.118 53.7363L56.1125 53.7193L56.1069 53.7045V53.7024L56.1012 53.6877L56.0953 53.6707L56.0891 53.6559L56.0829 53.6389L56.0765 53.6241L56.0703 53.6071L56.0638 53.5923L56.0575 53.5753L56.0505 53.5605L56.0439 53.5457V53.5436L56.037 53.5288C54.3169 54.0121 52.5997 54.4719 50.9605 54.2748C48.4617 53.9739 46.1441 52.1448 43.7413 51.0342C41.3787 54.2196 38.2244 57.7117 34.2784 61.5104" fill="#32A940"/>
<path fill-rule="evenodd" clip-rule="evenodd" d="M25.3482 72.418C24.503 72.2207 23.6855 71.9196 22.9143 71.5215C20.1537 73.7829 17.1745 76.1298 13.9766 78.5622L25.3484 72.418" fill="#32A940"/>
<path fill-rule="evenodd" clip-rule="evenodd" d="M44.7652 35.956C44.6685 36.082 44.5477 36.1876 44.4099 36.2667C44.2721 36.3457 44.12 36.3967 43.9624 36.4166C43.8048 36.4365 43.6447 36.425 43.4916 36.3827C43.3385 36.3404 43.1953 36.2681 43.0702 36.1701C42.817 35.9707 42.6527 35.6794 42.6129 35.3596C42.5731 35.0398 42.6611 34.7171 42.8577 34.4618C43.4797 33.6543 44.3053 33.1456 45.1295 32.6349C45.7622 32.2427 46.3961 31.8507 46.7509 31.3929L46.7479 31.3909C46.9086 31.1831 46.7396 30.2591 46.5706 29.3372C46.3036 27.879 46.0364 26.4187 46.861 25.3505C47.7963 24.1404 49.824 24.4942 51.8502 24.8482C53.1696 25.0771 54.4889 25.3081 54.5345 25.2488C54.5802 25.1895 54.0359 23.958 53.4919 22.7288C52.6547 20.8341 51.8172 18.9372 52.7501 17.7269L52.7474 17.7248C53.5701 16.6587 55.0438 16.5613 56.5164 16.4638C57.4435 16.4046 58.3711 16.343 58.5294 16.1375C58.8881 15.6733 59.1095 14.9591 59.3304 14.2448C59.6166 13.3228 59.9035 12.3988 60.5339 11.5829C60.6306 11.4574 60.7512 11.3524 60.8887 11.2738C61.0263 11.1952 61.178 11.1447 61.3352 11.1252C61.4924 11.1057 61.6519 11.1176 61.8045 11.1601C61.9571 11.2026 62.0997 11.275 62.2241 11.3731C62.4761 11.5725 62.6393 11.8633 62.6782 12.1824C62.7171 12.5014 62.6287 12.8229 62.432 13.0771C62.0809 13.5306 61.8577 14.2513 61.6348 14.9696C61.3473 15.898 61.0593 16.8263 60.4369 17.6317C59.6137 18.6978 58.1403 18.7953 56.6677 18.8927C55.7405 18.952 54.8129 19.0135 54.6546 19.2191L54.652 19.217L54.6501 19.2191C54.6048 19.2763 55.1486 20.5077 55.6922 21.739C56.5307 23.6338 57.3691 25.5306 56.4328 26.743C55.4965 27.9553 53.471 27.5993 51.4446 27.2453C50.1252 27.0164 48.8059 26.7854 48.7595 26.8447C48.6024 27.0482 48.7717 27.9744 48.9408 28.8984C49.2084 30.3608 49.4762 31.8232 48.6555 32.8851L48.6525 32.883L48.6511 32.8851C48.0243 33.6969 47.2045 34.2033 46.385 34.7099C45.755 35.0998 45.124 35.4899 44.7649 35.9561" fill="#F0393C"/>
<path fill-rule="evenodd" clip-rule="evenodd" d="M37.8412 29.8599C37.7793 30.0063 37.6891 30.139 37.5758 30.2504C37.4624 30.3617 37.3281 30.4496 37.1807 30.5089C37.0333 30.5681 36.8756 30.5977 36.7167 30.5958C36.5578 30.5939 36.4008 30.5606 36.2548 30.4978C35.9596 30.3685 35.7275 30.1277 35.609 29.828C35.4905 29.5283 35.4952 29.1939 35.6222 28.8976C36.0731 27.8401 36.7737 26.9774 37.458 26.1338C38.0805 25.3665 38.6883 24.6163 38.9121 23.9041C39.0363 23.5079 38.4473 22.5923 37.8725 21.6999C37.0814 20.4707 36.3067 19.2667 36.5451 17.9973C36.8141 16.5646 38.4464 15.7485 40.0442 14.9474C41.0582 14.4408 42.0511 13.9428 42.0541 13.8771C42.0592 13.7584 41.158 13.1734 40.2738 12.6012C38.962 11.7534 37.6708 10.9162 37.5168 9.65727C37.3796 8.53392 37.9951 7.54425 38.6041 6.56508C38.9881 5.94832 39.3671 5.33792 39.317 5.1769C39.1487 4.6428 38.6546 4.0685 38.1647 3.49832C37.6856 2.97927 37.2629 2.4109 36.9037 1.80272C36.7497 1.51985 36.7134 1.18768 36.8027 0.878222C36.8919 0.568761 37.0996 0.30695 37.3806 0.149564C37.5196 0.0729187 37.6724 0.0245614 37.8303 0.007275C37.9881 -0.0100114 38.1477 0.00410692 38.3001 0.0488383C38.4524 0.0935696 38.5943 0.16802 38.7178 0.26789C38.8412 0.367759 38.9436 0.491076 39.0191 0.630724C39.2985 1.08779 39.6228 1.51592 39.987 1.90875C40.6357 2.66332 41.2893 3.42409 41.6115 4.44364C42.0007 5.67922 41.3265 6.7644 40.644 7.8601C40.2648 8.46843 39.881 9.08519 39.9151 9.36066C39.931 9.48989 40.7476 10.0176 41.5772 10.5539C43.0396 11.5013 44.5281 12.4657 44.462 13.9811C44.3966 15.4816 42.7711 16.2975 41.1113 17.1284C40.0474 17.6604 38.9601 18.205 38.9153 18.4446C38.8551 18.7625 39.3693 19.5616 39.8938 20.3775C40.7768 21.7488 41.682 23.1561 41.2165 24.6376C40.852 25.7968 40.0989 26.7252 39.3276 27.6746C38.7492 28.389 38.1576 29.1181 37.8412 29.8599Z" fill="#5B7FC9"/>
<path fill-rule="evenodd" clip-rule="evenodd" d="M51.8833 41.6625C51.7578 41.7595 51.6142 41.8306 51.461 41.8717C51.3078 41.9128 51.1479 41.9231 50.9907 41.902C50.8335 41.8809 50.682 41.8289 50.545 41.7488C50.4081 41.6688 50.2883 41.5623 50.1928 41.4357C49.9986 41.179 49.9135 40.8561 49.956 40.5371C49.9985 40.218 50.1651 39.9286 50.4196 39.7317C51.4899 38.9051 52.7029 38.5702 53.8849 38.2438C54.6797 38.0234 55.4605 37.8094 56.0281 37.4533C56.4096 37.216 56.6995 36.1583 56.9831 35.1283C57.4077 33.5812 57.8232 32.0699 59.1006 31.4723C60.5444 30.7962 62.1098 31.9534 63.6404 33.0873C64.5363 33.7506 65.4149 34.4014 65.5525 34.3589C65.7299 34.306 66.1144 33.3373 66.4916 32.3879C67.1217 30.8026 67.7412 29.2448 69.178 29.0625C70.4679 28.8992 71.4803 29.783 72.48 30.6541C73.0314 31.1353 73.5768 31.6122 73.8256 31.6269C74.3391 31.6299 74.8514 31.5766 75.3533 31.468C76.2818 31.307 77.206 31.1458 78.2362 31.4171C78.5465 31.4995 78.8115 31.7013 78.9734 31.9786C79.1353 32.2558 79.1809 32.5858 79.1001 32.8965C79.0612 33.0503 78.9923 33.1948 78.8973 33.3219C78.8024 33.4489 78.6833 33.556 78.5469 33.6369C78.4105 33.7178 78.2595 33.771 78.1025 33.7935C77.9455 33.8159 77.7856 33.8071 77.632 33.7676C77.1144 33.632 76.4385 33.7485 75.7593 33.8673C75.0774 34.0114 74.3808 34.074 73.6841 34.0537C72.6191 33.9881 71.7657 33.2442 70.9035 32.4917C70.3103 31.9746 69.7092 31.4489 69.4711 31.4807C69.4494 31.4828 69.0922 32.3793 68.7298 33.2928C68.138 34.7827 67.5345 36.3003 66.2417 36.6902C64.958 37.078 63.6 36.0735 62.2144 35.0477C61.2519 34.3356 60.2677 33.6064 60.1111 33.6807C59.848 33.8035 59.5797 34.7786 59.3063 35.7746C58.8986 37.2582 58.4816 38.7778 57.2937 39.5196C56.4339 40.0558 55.4854 40.3187 54.5179 40.5858C53.5668 40.8465 52.5907 41.1178 51.8831 41.6624" fill="#6759B2"/>
<path fill-rule="evenodd" clip-rule="evenodd" d="M28.8758 21.645C29.3391 21.6423 29.7824 21.456 30.1086 21.1271C30.4349 20.7982 30.6175 20.3534 30.6166 19.8901C30.6175 19.4269 30.4349 18.9821 30.1086 18.6532C29.7824 18.3243 29.3391 18.138 28.8758 18.1353C28.4125 18.138 27.9692 18.3242 27.6428 18.6531C27.3165 18.982 27.1338 19.4268 27.1348 19.8901C27.1338 20.3535 27.3165 20.7983 27.6428 21.1272C27.9692 21.4561 28.4125 21.6423 28.8758 21.645Z" fill="#F0393C"/>
<path fill-rule="evenodd" clip-rule="evenodd" d="M51.6001 9.16803C52.1148 9.16501 52.6073 8.95808 52.9698 8.59259C53.3322 8.2271 53.535 7.73285 53.5338 7.21811C53.535 6.70337 53.3322 6.20912 52.9698 5.84363C52.6073 5.47814 52.1148 5.27122 51.6001 5.26819C51.0853 5.27117 50.5927 5.47806 50.2302 5.84355C49.8677 6.20905 49.6648 6.70333 49.666 7.21811C49.6648 7.73289 49.8677 8.22718 50.2302 8.59267C50.5927 8.95816 51.0853 9.16505 51.6001 9.16803Z" fill="#6759B2"/>
<path fill-rule="evenodd" clip-rule="evenodd" d="M70.4555 22.0838C70.9702 22.0807 71.4628 21.8738 71.8252 21.5083C72.1876 21.1428 72.3905 20.6486 72.3892 20.1339C72.39 19.6193 72.187 19.1255 71.8246 18.7602C71.4623 18.3949 70.97 18.188 70.4555 18.1846C69.9409 18.1879 69.4485 18.3949 69.0861 18.7603C68.7237 19.1257 68.5207 19.6197 68.5215 20.1343C68.5204 20.649 68.7233 21.1432 69.0858 21.5086C69.4483 21.874 69.9408 22.0808 70.4555 22.0838Z" fill="#32A940"/>
<path fill-rule="evenodd" clip-rule="evenodd" d="M72.6323 46.9426C73.3401 46.9384 74.0174 46.6539 74.5158 46.1514C75.0143 45.6488 75.2932 44.9693 75.2915 44.2615C75.2932 43.5537 75.0143 42.8741 74.5158 42.3715C74.0174 41.869 73.3401 41.5845 72.6323 41.5803C71.9245 41.5845 71.2472 41.869 70.7487 42.3715C70.2502 42.874 69.9711 43.5536 69.9727 44.2615C69.9711 44.9693 70.2502 45.6489 70.7487 46.1514C71.2472 46.6539 71.9245 46.9384 72.6323 46.9426Z" fill="#F9B317"/>
<path fill-rule="evenodd" clip-rule="evenodd" d="M49.187 78.399C49.5338 77.4291 50.0758 76.5406 50.7795 75.7885C51.4833 75.0364 52.3338 74.4366 53.2785 74.0262C53.3813 73.9833 53.4684 73.9099 53.5281 73.8159C53.5878 73.7219 53.6172 73.6118 53.6124 73.5005C53.6108 73.389 53.5751 73.2807 53.51 73.1901C53.4449 73.0995 53.3537 73.0311 53.2485 72.9939C52.2819 72.6401 51.3984 72.0914 50.6527 71.3819C49.907 70.6724 49.315 69.8172 48.9134 68.8695C48.8714 68.7665 48.7987 68.6789 48.7052 68.6186C48.6117 68.5584 48.5019 68.5283 48.3908 68.5325C48.2796 68.5348 48.1717 68.5712 48.0819 68.6368C47.9921 68.7023 47.9246 68.794 47.8886 68.8992C47.5421 69.8689 47.0002 70.7571 46.2964 71.5088C45.5926 72.2606 44.742 72.8598 43.7972 73.2694C43.6944 73.3128 43.6073 73.3866 43.5476 73.4809C43.4879 73.5753 43.4585 73.6856 43.4634 73.7972C43.4653 73.9086 43.5012 74.0169 43.5663 74.1074C43.6314 74.1979 43.7225 74.2664 43.8276 74.3038C44.7941 74.6576 45.6777 75.2063 46.4234 75.9158C47.1691 76.6253 47.761 77.4805 48.1625 78.4282C48.2046 78.5312 48.2774 78.6187 48.3709 78.679C48.4644 78.7393 48.5741 78.7694 48.6853 78.7652C48.7964 78.7625 48.904 78.7259 48.9937 78.6604C49.0835 78.5948 49.1511 78.5035 49.1875 78.3985" fill="#5B7FC9"/>
<path fill-rule="evenodd" clip-rule="evenodd" d="M50.6576 71.3859C50.4766 73.9504 49.064 75.4594 46.4199 75.913C47.167 76.6234 47.7603 77.4797 48.1629 78.4288C48.205 78.5318 48.2778 78.6193 48.3713 78.6796C48.4648 78.7398 48.5745 78.7699 48.6857 78.7658C48.7968 78.763 48.9044 78.7265 48.9941 78.6609C49.0838 78.5954 49.1514 78.5041 49.1878 78.3991C49.5346 77.4292 50.0765 76.5407 50.7802 75.7886C51.4839 75.0364 52.3344 74.4366 53.2791 74.0262C53.3818 73.9833 53.469 73.9098 53.5287 73.8158C53.5883 73.7218 53.6178 73.6118 53.6129 73.5005C53.6113 73.389 53.5756 73.2806 53.5105 73.1901C53.4455 73.0995 53.3542 73.031 53.249 72.9939C52.2832 72.6425 51.4007 72.0948 50.6572 71.3853" fill="#4267BA"/>
<path fill-rule="evenodd" clip-rule="evenodd" d="M5.26169 41.8432L8.40157 45.0097C8.54 45.1504 8.61758 45.34 8.61758 45.5374C8.61758 45.7348 8.54 45.9244 8.40157 46.0651L5.26169 49.2289C5.19318 49.2979 5.11169 49.3526 5.02192 49.39C4.93215 49.4274 4.83588 49.4466 4.73864 49.4466C4.6414 49.4466 4.54512 49.4274 4.45536 49.39C4.36559 49.3526 4.2841 49.2979 4.21559 49.2289L1.07539 46.0656C0.936955 45.9249 0.859375 45.7353 0.859375 45.5379C0.859375 45.3404 0.936955 45.1509 1.07539 45.0101L4.21559 41.8437C4.2841 41.7747 4.36559 41.7199 4.45536 41.6826C4.54512 41.6452 4.6414 41.626 4.73864 41.626C4.83588 41.626 4.93215 41.6452 5.02192 41.6826C5.11169 41.7199 5.19318 41.7747 5.26169 41.8437" fill="#F0393C"/>
<path fill-rule="evenodd" clip-rule="evenodd" d="M6.83262 43.427C6.47804 45.61 5.08266 47.0166 2.64648 47.6468L4.21635 49.23C4.28483 49.2991 4.3663 49.3538 4.45606 49.3912C4.54582 49.4286 4.64209 49.4478 4.73932 49.4478C4.83655 49.4478 4.93282 49.4286 5.02257 49.3912C5.11233 49.3538 5.1938 49.2991 5.26228 49.23L8.40217 46.0657C8.54079 45.925 8.6185 45.7354 8.6185 45.5379C8.6185 45.3404 8.54079 45.1509 8.40217 45.0102L6.83262 43.427Z" fill="#CB3325"/>
<path fill-rule="evenodd" clip-rule="evenodd" d="M67.6778 56.0052L70.8181 59.1716C70.9566 59.312 71.0342 59.5012 71.0342 59.6983C71.0342 59.8955 70.9566 60.0847 70.8181 60.2251L67.6778 63.392C67.6093 63.461 67.5278 63.5157 67.4381 63.5531C67.3483 63.5904 67.252 63.6097 67.1548 63.6097C67.0576 63.6097 66.9613 63.5904 66.8716 63.5531C66.7818 63.5157 66.7003 63.461 66.6318 63.392L63.4915 60.2255C63.353 60.0852 63.2754 59.896 63.2754 59.6988C63.2754 59.5017 63.353 59.3125 63.4915 59.1721L66.6318 56.0057C66.7003 55.9367 66.7818 55.8819 66.8716 55.8446C66.9613 55.8072 67.0576 55.788 67.1548 55.788C67.252 55.788 67.3483 55.8072 67.4381 55.8446C67.5278 55.8819 67.6093 55.9367 67.6778 56.0057" fill="#43BB4E"/>
<path fill-rule="evenodd" clip-rule="evenodd" d="M69.2483 57.5884C68.894 59.7714 67.4987 61.178 65.0625 61.8082L66.6324 63.3914C66.7009 63.4604 66.7823 63.5152 66.8721 63.5526C66.9618 63.5899 67.0581 63.6092 67.1553 63.6092C67.2525 63.6092 67.3488 63.5899 67.4386 63.5526C67.5283 63.5152 67.6098 63.4604 67.6783 63.3914L70.8182 60.225C70.9568 60.0847 71.0345 59.8955 71.0345 59.6983C71.0345 59.5011 70.9568 59.3118 70.8182 59.1716L69.2483 57.5884Z" fill="#32A940"/>
<path fill-rule="evenodd" clip-rule="evenodd" d="M10.975 17.0757C10.9766 16.9888 10.9954 16.9032 11.0301 16.8236C11.0649 16.7439 11.1149 16.672 11.1775 16.6117C11.2401 16.5515 11.3139 16.5042 11.3948 16.4725C11.4757 16.4409 11.562 16.4254 11.6489 16.4271C11.8244 16.4321 11.9909 16.5065 12.1116 16.6341C12.2323 16.7616 12.2975 16.9319 12.2928 17.1075L12.226 20.0259C12.2244 20.1128 12.2057 20.1985 12.1709 20.2781C12.1361 20.3577 12.086 20.4296 12.0234 20.4899C11.9608 20.5501 11.887 20.5974 11.8061 20.6291C11.7252 20.6608 11.6389 20.6762 11.5521 20.6745C11.3766 20.6694 11.2102 20.5949 11.0896 20.4674C10.9689 20.3398 10.9038 20.1697 10.9084 19.9941L10.9752 17.0757" fill="#5B7FC9"/>
<path fill-rule="evenodd" clip-rule="evenodd" d="M10.8463 22.6512C10.8479 22.5644 10.8667 22.4787 10.9014 22.3991C10.9362 22.3195 10.9863 22.2475 11.0489 22.1873C11.1115 22.1271 11.1853 22.0798 11.2662 22.0481C11.3471 22.0164 11.4334 22.001 11.5203 22.0027C11.6956 22.0073 11.8618 22.0814 11.9825 22.2085C12.1032 22.3357 12.1685 22.5057 12.1639 22.681L12.0971 25.5994C12.0955 25.6863 12.0767 25.7719 12.042 25.8515C12.0072 25.9311 11.9571 26.0031 11.8945 26.0633C11.8319 26.1235 11.7581 26.1708 11.6772 26.2025C11.5963 26.2342 11.51 26.2497 11.4231 26.248C11.3363 26.2457 11.2508 26.2264 11.1715 26.191C11.0922 26.1557 11.0206 26.1051 10.9608 26.0421C10.9011 25.9792 10.8543 25.905 10.8232 25.824C10.7921 25.7429 10.7772 25.6565 10.7795 25.5697L10.8463 22.6512Z" fill="#5B7FC9"/>
<path fill-rule="evenodd" clip-rule="evenodd" d="M7.3079 21.9041C7.13262 21.8995 6.96634 21.8254 6.84565 21.6982C6.72495 21.571 6.65972 21.4011 6.66429 21.2258C6.66594 21.139 6.68469 21.0533 6.71946 20.9737C6.75423 20.8941 6.80434 20.8221 6.86692 20.7619C6.92951 20.7017 7.00335 20.6544 7.08422 20.6227C7.1651 20.591 7.25142 20.5756 7.33826 20.5773L10.2334 20.6429C10.4089 20.648 10.5752 20.7225 10.6958 20.85C10.8165 20.9776 10.8816 21.1477 10.877 21.3233C10.8753 21.4101 10.8566 21.4958 10.8218 21.5754C10.7871 21.655 10.737 21.727 10.6744 21.7872C10.6118 21.8474 10.5379 21.8947 10.4571 21.9264C10.3762 21.9581 10.2898 21.9735 10.203 21.9718L7.3079 21.9041Z" fill="#5B7FC9"/>
<path fill-rule="evenodd" clip-rule="evenodd" d="M12.8375 22.0329C12.662 22.0279 12.4955 21.9535 12.3748 21.8259C12.2541 21.6984 12.1889 21.5281 12.1936 21.3525C12.1953 21.2657 12.214 21.18 12.2488 21.1004C12.2836 21.0208 12.3337 20.9489 12.3963 20.8886C12.4589 20.8284 12.5328 20.7811 12.6137 20.7494C12.6946 20.7177 12.7809 20.7023 12.8677 20.704L15.7625 20.7719C15.9378 20.7766 16.104 20.8507 16.2247 20.9779C16.3454 21.105 16.4108 21.2749 16.4064 21.4501C16.405 21.5371 16.3864 21.623 16.3518 21.7029C16.3171 21.7827 16.267 21.8549 16.2044 21.9153C16.1418 21.9758 16.0678 22.0232 15.9868 22.0551C15.9058 22.0869 15.8193 22.1024 15.7323 22.1007L12.8375 22.0329Z" fill="#5B7FC9"/>
</g>
<defs>
<clipPath id="clip0_118_18623">
<rect width="80" height="80" fill="white"/>
</clipPath>
</defs>
</svg>
